<?xml version="1.0" encoding="UTF-8"?>
<svg xmlns="http://www.w3.org/2000/svg" xmlns:xlink="http://www.w3.org/1999/xlink" version="1.1" id="Layer_1" x="0px" y="0px" width="100%" viewBox="0 0 796 1024" enable-background="new 0 0 796 1024" xml:space="preserve" style="background: transparent;">

<path fill="#2B2B2B" opacity="1.000000" stroke="none" d=" M11.583334,1.000000   C10.576249,5.471802 9.527171,10.122333 7.525513,14.318459   C6.824966,15.787031 3.780098,16.137304 1.402887,16.999126   C1.000000,15.611111 1.000000,14.222222 1.356611,12.360611   C7.203429,10.068755 7.185049,5.574842 7.000000,1.000000   C8.388889,1.000000 9.777778,1.000000 11.583334,1.000000  z"/>
<path fill="#464646" opacity="1.000000" stroke="none" d=" M6.500528,1.000000   C7.185049,5.574842 7.203429,10.068755 1.356611,11.943945   C1.000000,8.444210 1.000000,4.888419 1.000000,1.000000   C2.660552,1.000000 4.330804,1.000000 6.500528,1.000000  z"/>
<path fill="#7F4CA1" opacity="1.000000" stroke="none" d=" M159.064621,798.087341   C157.256958,796.980713 155.254456,796.100098 153.670029,794.734497   C109.444527,756.615845 76.654007,710.222717 54.467403,656.358521   C39.844254,620.856750 31.090429,583.855774 27.903490,545.550720   C25.295887,514.209045 26.079855,482.974609 31.261333,451.955566   C40.665970,395.654541 62.141754,344.282684 95.247253,297.788788   C130.393005,248.429520 174.979218,210.023453 228.929657,182.404846   C273.401550,159.638565 320.529205,146.536545 370.311493,142.822342   C429.943909,138.373245 487.087372,148.657715 541.988953,171.975250   C585.747253,190.560043 624.415955,216.893692 658.084045,250.307205   C690.441650,282.420258 715.755371,319.548492 734.343079,361.271637   C747.493591,390.790161 757.171143,421.334747 762.188293,453.244141   C767.041443,484.109711 768.401550,515.107483 765.418640,546.338684   C762.955078,572.132141 758.621643,597.469971 751.042053,622.244324   C736.188660,670.793579 713.067322,714.967651 679.843994,753.432922   C667.255676,768.007507 652.945740,781.097107 639.368896,794.812439   C638.098450,796.095886 636.455078,797.010193 634.368652,797.886841   C625.337097,785.524048 613.701294,777.743347 599.953247,772.411621   C600.958557,767.650879 602.093018,763.302124 602.995667,758.905762   C611.832031,715.865417 614.485474,672.189514 615.732422,628.431396   C616.933167,586.291138 615.345276,544.184875 611.803345,502.174316   C610.335999,484.770599 608.826782,467.346771 606.495667,450.045380   C603.409485,427.140350 599.374878,404.364868 595.969604,381.500671   C590.040710,341.691498 574.765808,305.614929 551.873779,272.806183   C532.248535,244.679306 507.388062,222.042831 477.038666,205.748917   C453.728973,193.234467 429.286957,187.194885 402.972046,194.220261   C398.368896,195.449173 394.329834,194.830673 389.850616,194.005264   C382.040771,192.566086 374.011230,191.046066 366.153717,191.389450   C346.463776,192.249924 328.398254,199.116104 311.535583,209.022461   C274.371552,230.855301 246.689072,261.692841 226.312469,299.406403   C214.922989,320.486328 205.441437,342.449310 201.322220,366.049927   C195.691071,398.313049 190.701691,430.740265 187.014526,463.275879   C183.346817,495.639923 180.496017,528.184082 179.320587,560.722717   C177.498444,611.163879 178.080902,661.679688 184.268448,711.871887   C186.785095,732.286621 191.390335,752.443848 194.653748,772.763916   C187.967804,775.996460 181.160385,778.475342 175.518372,782.562805   C169.462936,786.949707 164.502762,792.848389 159.064621,798.087341  z"/>
<path fill="#F1F1F1" opacity="1.000000" stroke="none" d=" M159.145874,798.403564   C164.502762,792.848389 169.462936,786.949707 175.518372,782.562805   C181.160385,778.475342 187.967804,775.996460 194.819717,773.117004   C195.783768,775.039124 196.252777,776.640991 196.587631,778.270325   C203.171860,810.310059 220.699615,834.005920 250.133743,848.679199   C270.684082,858.923767 292.354523,865.755493 314.847656,870.119934   C317.025940,870.542603 319.204712,870.962952 322.301300,871.561951   C320.619232,868.290100 319.470856,865.913757 318.199463,863.605103   C304.202271,838.188477 292.093079,811.900574 282.379547,784.561401   C277.935150,772.052429 274.237823,759.278015 270.596008,746.551758   C274.827545,745.375061 278.613312,744.021057 282.512512,743.216919   C291.130493,741.439636 298.520294,737.681458 305.556305,732.231689   C317.244904,723.178467 329.671875,715.078430 341.927765,706.924194   C343.374695,709.184509 344.533783,711.221252 346.013306,712.989807   C354.196564,722.772095 362.508240,732.446960 370.677917,742.240479   C378.314850,751.395386 385.834656,760.648071 393.394867,769.866821   C395.399811,772.311584 397.187622,773.925110 400.020691,770.513855   C413.989807,753.693848 428.146027,737.029236 442.118958,720.212280   C445.681091,715.925232 448.815125,711.282349 452.466553,706.930481   C461.731842,713.319397 470.678558,719.577820 479.620361,725.843140   C486.243805,730.483948 492.394440,736.133179 499.610657,739.501709   C506.996735,742.949524 515.424133,744.166687 523.582764,746.717834   C523.632446,748.523987 523.731384,750.043213 523.322876,751.410767   C514.030029,782.515381 502.506653,812.759521 488.025604,841.834290   C483.151703,851.619995 477.953888,861.244324 472.648407,871.433533   C474.274078,871.324463 475.246613,871.371643 476.170013,871.180847   C499.518646,866.355286 522.506104,860.401794 543.787170,849.216980   C567.247375,836.886963 585.960510,820.297729 593.605164,793.739685   C595.622925,786.729919 597.846008,779.779358 599.974731,772.801575   C613.701294,777.743347 625.337097,785.524048 634.029297,797.900818   C628.900024,802.720764 623.695679,807.583130 618.054932,811.871460   C580.878357,840.134521 539.850525,860.704346 494.758911,873.024841   C486.108917,875.388245 477.387970,877.491943 467.937866,879.867554   C461.203033,881.015259 455.218567,881.947815 449.264160,883.044006   C447.429810,883.381653 445.677612,884.165649 443.887817,884.745361   C442.204529,884.763306 440.521271,884.781250 438.069702,884.792969   C436.500641,885.113953 435.699860,885.441040 434.899048,885.768127   C429.561310,886.144775 424.223541,886.521423 418.048889,886.924194   C403.142212,886.969360 389.072418,886.988403 375.002655,887.007446   C374.553802,886.985901 374.104980,886.964294 372.998657,886.928833   C371.894958,886.962952 371.448700,887.010986 371.002472,887.059021   C369.648285,886.963501 368.294098,886.867981 366.362793,886.389160   C364.523560,885.999268 363.261444,885.992737 361.999329,885.986206   C357.754028,885.564636 353.508698,885.143127 348.731995,884.467285   C347.800903,884.145996 347.401184,884.078857 347.001465,884.011719   C346.271240,883.968994 345.541046,883.926270 344.320740,883.539551   C342.218292,883.124573 340.605927,883.053589 338.993591,882.982605   C338.271332,882.937195 337.549103,882.891785 336.354889,882.475342   C335.255798,882.080872 334.628662,882.057556 334.001526,882.034302   C333.568024,882.007080 333.134491,881.979858 332.206177,881.560425   C326.476227,880.163391 321.241150,879.158630 316.006042,878.153931   C302.048798,874.067444 287.745422,870.886902 274.203705,865.712952   C242.384308,853.555725 211.739380,838.872742 184.182526,818.509094   C175.649261,812.203369 167.533844,805.332153 159.145874,798.403564  M467.178894,793.653137   C474.390320,781.102417 481.601746,768.551697 488.813202,756.000977   C488.483765,755.781494 488.154358,755.562012 487.824921,755.342529   C473.456024,774.580017 459.087128,793.817566 444.317566,813.591492   C432.484192,803.805359 421.207031,794.479187 409.929840,785.153015   C409.482178,785.633179 409.034515,786.113281 408.586853,786.593445   C420.886200,800.411377 433.185577,814.229370 446.070831,828.705566   C453.356598,816.651306 460.107513,805.481934 467.178894,793.653137  M366.974274,799.491882   C363.017517,802.783752 358.981354,805.985718 355.123871,809.390076   C350.139496,813.789062 349.177216,813.794556 345.385376,808.575867   C332.977295,791.498413 320.593964,774.402954 308.170990,757.336304   C307.602020,756.554565 306.740021,755.986206 306.014465,755.318420   C305.754486,755.541626 305.494476,755.764832 305.234497,755.988098   C319.520416,780.037659 333.806335,804.087219 348.421783,828.691467   C362.776550,812.474121 376.236725,797.267395 389.696930,782.060730   C389.411407,781.790955 389.125854,781.521240 388.840332,781.251526   C381.722595,787.165649 374.604889,793.079834 366.974274,799.491882  M302.555359,750.514648   C302.555359,750.514648 302.477264,750.556091 302.555359,750.514648  M489.512543,753.442688   C489.512543,753.442688 489.554443,753.523926 489.512543,753.442688  z"/>
<path fill="#8B8B8B" opacity="1.000000" stroke="none" d=" M763.544800,972.582764   C765.392700,973.369812 766.913757,973.989807 769.732910,975.138977   C758.458130,979.084717 750.854248,985.623169 747.317749,996.811890   C743.434265,986.303101 736.746826,978.901794 725.757507,975.223938   C736.306580,971.448975 743.560303,964.788452 746.992859,953.820923   C750.705750,961.794312 754.857178,969.000671 763.544800,972.582764  z"/>
<path fill="#171717" opacity="1.000000" stroke="none" d=" M375.214233,887.339600   C389.072418,886.988403 403.142212,886.969360 417.604279,887.017456   C416.983795,887.719116 415.976624,888.895325 414.957397,888.905823   C402.813141,889.031616 390.666840,889.015564 378.521942,888.924866   C377.486816,888.917114 376.457703,888.108459 375.214233,887.339600  z"/>
<path fill="#171717" opacity="1.000000" stroke="none" d=" M444.141693,885.032532   C445.677612,884.165649 447.429810,883.381653 449.264160,883.044006   C455.218567,881.947815 461.203033,881.015259 467.585876,880.056519   C464.644287,881.466553 461.400543,883.359741 457.914215,884.081848   C453.511383,884.993652 448.910828,884.950745 444.141693,885.032532  z"/>
<path fill="#171717" opacity="1.000000" stroke="none" d=" M316.119080,878.493408   C321.241150,879.158630 326.476227,880.163391 331.883972,881.510681   C326.781738,880.846497 321.506927,879.839722 316.119080,878.493408  z"/>
<path fill="#171717" opacity="1.000000" stroke="none" d=" M339.166077,883.288330   C340.605927,883.053589 342.218292,883.124573 343.957336,883.495117   C342.502258,883.727844 340.920410,883.660950 339.166077,883.288330  z"/>
<path fill="#171717" opacity="1.000000" stroke="none" d=" M362.080841,886.326599   C363.261444,885.992737 364.523560,885.999268 365.955383,886.358276   C364.804199,886.696167 363.483276,886.681641 362.080841,886.326599  z"/>
<path fill="#171717" opacity="1.000000" stroke="none" d=" M435.103455,886.027222   C435.699860,885.441040 436.500641,885.113953 437.652466,884.859009   C437.104980,885.382874 436.206421,885.834595 435.103455,886.027222  z"/>
<path fill="#171717" opacity="1.000000" stroke="none" d=" M334.048767,882.320557   C334.628662,882.057556 335.255798,882.080872 335.996765,882.423340   C335.439056,882.697327 334.767548,882.652100 334.048767,882.320557  z"/>
<path fill="#171717" opacity="1.000000" stroke="none" d=" M371.050354,887.332031   C371.448700,887.010986 371.894958,886.962952 372.668823,887.000793   C372.674530,887.547363 372.352600,888.008179 372.030640,888.468933   C371.719849,888.180969 371.409058,887.893005 371.050354,887.332031  z"/>
<path fill="#171717" opacity="1.000000" stroke="none" d=" M347.191223,884.221802   C347.401184,884.078857 347.800903,884.145996 348.310120,884.537720   C348.073364,884.718872 347.727142,884.575378 347.191223,884.221802  z"/>
<path fill="#262A32" opacity="1.000000" stroke="none" d=" M599.953247,772.411621   C597.846008,779.779358 595.622925,786.729919 593.605164,793.739685   C585.960510,820.297729 567.247375,836.886963 543.787170,849.216980   C522.506104,860.401794 499.518646,866.355286 476.170013,871.180847   C475.246613,871.371643 474.274078,871.324463 472.648407,871.433533   C477.953888,861.244324 483.151703,851.619995 488.025604,841.834290   C502.506653,812.759521 514.030029,782.515381 523.322876,751.410767   C523.731384,750.043213 523.632446,748.523987 523.931763,746.518127   C524.802979,744.884949 525.833313,743.899902 526.167664,742.717957   C527.869324,736.703613 529.358032,730.629333 530.985657,724.593506   C532.270264,719.829590 533.760437,715.118774 534.953857,710.333130   C536.185547,705.393616 537.204956,700.399780 538.253052,695.416199   C540.189819,686.207275 542.408630,677.041687 543.905640,667.760498   C545.775940,656.164612 547.080505,644.475952 548.547546,632.817078   C550.082092,620.621521 551.755188,608.436462 552.928711,596.204712   C553.962036,585.434265 554.555969,574.613220 555.035950,563.800842   C555.484680,553.693726 555.528503,543.568542 555.843384,533.027588   C557.318481,498.107025 556.654602,463.645569 553.985168,429.228485   C553.884033,427.924622 552.712646,426.161652 551.550293,425.561981   C525.963013,412.361420 505.150757,393.168732 486.036774,372.191681   C473.190155,358.092896 461.755829,342.707245 449.689636,327.897308   C459.790131,351.691254 472.297729,374.136444 489.922424,393.736572   C487.899109,393.625793 486.340973,393.121552 485.143097,392.165833   C474.503723,383.677338 462.935028,376.060394 453.596222,366.312653   C442.973450,355.224701 434.359314,342.212372 424.803802,329.693359   C419.496552,319.550262 414.257629,309.750305 408.999847,299.681824   C408.865845,299.275635 408.750732,299.138000 408.613464,298.642303   C404.998016,289.291809 401.404694,280.299377 397.442261,270.383240   C396.771210,272.394989 396.344482,273.674316 395.655518,275.151001   C394.966888,276.579803 394.540527,277.811218 393.867188,279.279968   C392.432281,282.343323 391.244354,285.169373 389.853149,288.196960   C389.379730,289.079620 389.109589,289.760773 388.559998,290.661682   C384.403107,297.831390 380.525696,304.781342 376.698120,311.755005   C376.747955,311.778656 376.720154,311.671875 376.432861,311.837952   C374.999908,313.935425 373.854218,315.866821 372.756287,317.804871   C372.804077,317.811493 372.776764,317.719025 372.504517,317.853821   C371.614716,319.021210 370.997192,320.053802 370.129333,321.230438   C369.532745,322.044159 369.186432,322.713837 368.554626,323.593567   C366.421051,326.471161 364.572968,329.138733 362.772430,331.815002   C362.820007,331.823730 362.785919,331.733185 362.496155,331.896973   C359.157806,336.049469 356.109222,340.038147 353.029663,344.019836   C352.998657,344.012848 353.031494,344.067261 352.743256,344.220825   C350.961304,346.245575 349.467560,348.116760 347.681610,350.107025   C346.607697,351.203461 345.826019,352.180817 344.748657,353.298523   C336.603119,361.274567 328.753265,369.110229 320.937744,376.966125   C320.972107,376.986389 320.948730,376.910156 320.624451,377.011139   C314.843933,381.726776 309.387695,386.341431 303.960205,390.977783   C303.988953,390.999512 303.960602,390.933350 303.627258,391.026917   C297.261658,395.429626 291.229431,399.738708 284.855560,404.117615   C282.298584,405.659302 280.083252,407.131226 277.508301,408.687103   C268.970367,413.133148 260.792023,417.495178 252.425278,421.820557   C252.236908,421.783905 251.970093,422.059814 251.639557,422.050629   C250.981735,422.315308 250.654434,422.589142 250.228027,422.811768   C250.128922,422.760559 249.987686,422.933289 249.608109,422.944702   C247.227890,423.746857 245.063080,424.279938 243.281815,425.414948   C242.000000,426.231689 240.472855,427.786865 240.359253,429.123535   C239.797989,435.727325 239.671082,442.368042 239.295502,449.323364   C239.216766,450.101746 239.233490,450.552490 239.160614,451.431519   C238.765549,471.979095 238.361786,492.097626 238.207382,512.218140   C238.152634,519.351562 238.705170,526.489685 238.982819,534.117554   C239.014328,540.108765 238.796906,545.622803 239.120728,551.104736   C239.951767,565.172852 240.961151,579.231323 242.018356,593.284729   C242.834930,604.139526 243.595230,615.007446 244.818619,625.819946   C245.927536,635.620789 247.645767,645.352112 249.061691,655.118958   C249.846268,660.530762 250.227707,666.024231 251.369904,671.356812   C255.107437,688.806213 258.917358,706.245422 263.099213,723.592163   C264.978363,731.387146 267.804993,738.953796 270.201691,746.624023   C274.237823,759.278015 277.935150,772.052429 282.379547,784.561401   C292.093079,811.900574 304.202271,838.188477 318.199463,863.605103   C319.470856,865.913757 320.619232,868.290100 322.301300,871.561951   C319.204712,870.962952 317.025940,870.542603 314.847656,870.119934   C292.354523,865.755493 270.684082,858.923767 250.133743,848.679199   C220.699615,834.005920 203.171860,810.310059 196.587631,778.270325   C196.252777,776.640991 195.783768,775.039124 195.211258,773.071411   C191.390335,752.443848 186.785095,732.286621 184.268448,711.871887   C178.080902,661.679688 177.498444,611.163879 179.320587,560.722717   C180.496017,528.184082 183.346817,495.639923 187.014526,463.275879   C190.701691,430.740265 195.691071,398.313049 201.322220,366.049927   C205.441437,342.449310 214.922989,320.486328 226.312469,299.406403   C246.689072,261.692841 274.371552,230.855301 311.535583,209.022461   C328.398254,199.116104 346.463776,192.249924 366.153717,191.389450   C374.011230,191.046066 382.040771,192.566086 389.850616,194.005264   C394.329834,194.830673 398.368896,195.449173 402.972046,194.220261   C429.286957,187.194885 453.728973,193.234467 477.038666,205.748917   C507.388062,222.042831 532.248535,244.679306 551.873779,272.806183   C574.765808,305.614929 590.040710,341.691498 595.969604,381.500671   C599.374878,404.364868 603.409485,427.140350 606.495667,450.045380   C608.826782,467.346771 610.335999,484.770599 611.803345,502.174316   C615.345276,544.184875 616.933167,586.291138 615.732422,628.431396   C614.485474,672.189514 611.832031,715.865417 602.995667,758.905762   C602.093018,763.302124 600.958557,767.650879 599.953247,772.411621  z"/>
<path fill="#1F2125" opacity="1.000000" stroke="none" d=" M555.750549,533.451355   C555.528503,543.568542 555.484680,553.693726 555.035950,563.800842   C554.555969,574.613220 553.962036,585.434265 552.928711,596.204712   C551.755188,608.436462 550.082092,620.621521 548.547546,632.817078   C547.080505,644.475952 545.775940,656.164612 543.905640,667.760498   C542.408630,677.041687 540.189819,686.207275 538.253052,695.416199   C537.204956,700.399780 536.185547,705.393616 534.953857,710.333130   C533.760437,715.118774 532.270264,719.829590 530.985657,724.593506   C529.358032,730.629333 527.869324,736.703613 526.167664,742.717957   C525.833313,743.899902 524.802979,744.884949 523.744629,746.160522   C515.424133,744.166687 506.996735,742.949524 499.610657,739.501709   C492.394440,736.133179 486.243805,730.483948 479.620361,725.843140   C470.678558,719.577820 461.731842,713.319397 452.516174,706.474609   C452.025146,700.276794 451.805176,694.662354 451.733490,688.597534   C451.597656,681.763489 451.313538,675.379883 451.129395,668.561096   C451.081451,665.761475 450.933533,663.397034 450.921997,660.579224   C450.838593,653.726929 450.618835,647.328064 450.633667,640.646667   C460.920258,633.334229 471.027435,626.381653 481.013763,619.259583   C509.148041,599.194763 528.122986,572.686768 537.094116,539.181458   C537.425903,537.942078 537.984985,536.763489 537.948486,536.860657   C544.549316,535.596497 550.149963,534.523926 555.750549,533.451355  z"/>
<path fill="#202124" opacity="1.000000" stroke="none" d=" M270.596008,746.551758   C267.804993,738.953796 264.978363,731.387146 263.099213,723.592163   C258.917358,706.245422 255.107437,688.806213 251.369904,671.356812   C250.227707,666.024231 249.846268,660.530762 249.061691,655.118958   C247.645767,645.352112 245.927536,635.620789 244.818619,625.819946   C243.595230,615.007446 242.834930,604.139526 242.018356,593.284729   C240.961151,579.231323 239.951767,565.172852 239.120728,551.104736   C238.796906,545.622803 239.014328,540.108765 239.376312,534.191040   C244.510193,534.298340 249.252960,534.823975 254.390259,535.443726   C255.658340,536.958130 256.871094,538.272278 257.353271,539.814819   C262.492676,556.255920 268.990753,572.012390 279.296204,586.017029   C290.906189,601.794373 306.064636,613.695129 321.601471,625.197083   C328.802338,630.527893 336.116821,635.705261 343.434052,641.421753   C343.362946,651.598145 343.237579,661.304932 343.000061,671.466248   C342.521240,683.472778 342.154541,695.024780 341.787842,706.576843   C329.671875,715.078430 317.244904,723.178467 305.556305,732.231689   C298.520294,737.681458 291.130493,741.439636 282.512512,743.216919   C278.613312,744.021057 274.827545,745.375061 270.596008,746.551758  z"/>
<path fill="#F7DCB8" opacity="1.000000" stroke="none" d=" M341.927765,706.924194   C342.154541,695.024780 342.521240,683.472778 343.347046,671.531494   C353.490875,674.346252 362.983398,678.465637 372.903503,680.548218   C389.451538,684.022339 405.976868,682.443970 421.569550,675.608826   C431.525055,671.244690 441.061371,665.924194 450.785645,661.032532   C450.933533,663.397034 451.081451,665.761475 450.849609,668.869629   C450.321960,675.005859 450.084930,680.398682 450.100739,685.790710   C450.103943,686.877930 451.065491,687.962280 451.585205,689.047913   C451.805176,694.662354 452.025146,700.276794 452.195465,706.347046   C448.815125,711.282349 445.681091,715.925232 442.118958,720.212280   C428.146027,737.029236 413.989807,753.693848 400.020691,770.513855   C397.187622,773.925110 395.399811,772.311584 393.394867,769.866821   C385.834656,760.648071 378.314850,751.395386 370.677917,742.240479   C362.508240,732.446960 354.196564,722.772095 346.013306,712.989807   C344.533783,711.221252 343.374695,709.184509 341.927765,706.924194  z"/>
<path fill="#D9D9D9" opacity="1.000000" stroke="none" d=" M467.018677,793.982910   C460.107513,805.481934 453.356598,816.651306 446.070831,828.705566   C433.185577,814.229370 420.886200,800.411377 408.586853,786.593445   C409.034515,786.113281 409.482178,785.633179 409.929840,785.153015   C421.207031,794.479187 432.484192,803.805359 444.317566,813.591492   C459.087128,793.817566 473.456024,774.580017 487.824921,755.342529   C488.154358,755.562012 488.483765,755.781494 488.813202,756.000977   C481.601746,768.551697 474.390320,781.102417 467.018677,793.982910  z"/>
<path fill="#D9D9D9" opacity="1.000000" stroke="none" d=" M367.230713,799.242920   C374.604889,793.079834 381.722595,787.165649 388.840332,781.251526   C389.125854,781.521240 389.411407,781.790955 389.696930,782.060730   C376.236725,797.267395 362.776550,812.474121 348.421783,828.691467   C333.806335,804.087219 319.520416,780.037659 305.234497,755.988098   C305.494476,755.764832 305.754486,755.541626 306.014465,755.318420   C306.740021,755.986206 307.602020,756.554565 308.170990,757.336304   C320.593964,774.402954 332.977295,791.498413 345.385376,808.575867   C349.177216,813.794556 350.139496,813.789062 355.123871,809.390076   C358.981354,805.985718 363.017517,802.783752 367.230713,799.242920  z"/>
<path fill="#D9D9D9" opacity="1.000000" stroke="none" d=" M302.516296,750.535400   C302.477264,750.556091 302.555359,750.514648 302.516296,750.535400  z"/>
<path fill="#D9D9D9" opacity="1.000000" stroke="none" d=" M489.533508,753.483276   C489.554443,753.523926 489.512543,753.442688 489.533508,753.483276  z"/>
<path fill="#F6DAB7" opacity="1.000000" stroke="none" d=" M343.379791,640.952209   C336.116821,635.705261 328.802338,630.527893 321.601471,625.197083   C306.064636,613.695129 290.906189,601.794373 279.296204,586.017029   C268.990753,572.012390 262.492676,556.255920 257.353271,539.814819   C256.871094,538.272278 255.658340,536.958130 254.203690,535.143066   C251.050507,534.320679 248.490677,533.786255 245.903564,533.489868   C241.613602,532.998474 239.940887,530.531006 239.987686,526.406006   C240.264557,501.995972 240.510254,477.585510 240.681229,453.174561   C240.686279,452.454163 239.748444,451.727173 239.250214,451.003235   C239.233490,450.552490 239.216766,450.101746 239.574738,449.229065   C240.351776,446.603424 240.615189,444.362701 241.190018,442.204956   C241.985291,439.219604 244.238708,436.037933 243.681488,433.402618   C242.625504,428.408661 244.843613,426.479187 248.652008,424.820648   C249.256577,424.557373 249.550278,423.580353 249.987686,422.933289   C249.987686,422.933289 250.128922,422.760559 250.539291,422.757812   C251.289810,422.523315 251.629944,422.291565 251.970093,422.059814   C251.970093,422.059814 252.236908,421.783905 252.826324,421.815491   C255.124649,421.261627 256.902527,420.823608 258.529572,420.062927   C263.376099,417.797119 267.204407,418.027802 269.328339,423.774567   C269.541229,424.350586 270.914429,424.668121 271.793976,424.795013   C274.277313,425.153320 276.783966,425.349915 279.825958,425.666962   C281.272034,424.307037 283.518005,422.299652 285.637573,420.166626   C287.179596,418.614807 288.554626,416.897034 290.307312,415.109436   C291.050720,414.926788 291.490967,414.887970 292.089752,415.061218   C292.836395,414.942169 293.424500,414.611084 294.313660,414.113220   C295.067078,413.947174 295.519409,413.947937 296.247009,414.207947   C303.193451,414.966736 309.865540,415.816498 316.535553,415.800537   C319.369324,415.793762 322.198761,413.972992 325.362885,412.904968   C326.128510,412.951599 326.561401,413.069916 327.116852,413.533325   C333.855469,415.430359 340.468475,416.996002 347.098572,418.485291   C347.373169,418.546967 347.808472,417.893341 348.539368,417.612000   C349.875336,417.896667 350.951233,417.947449 351.787506,418.421234   C355.699127,420.637299 357.265533,418.242249 358.210144,415.097473   C359.100494,412.133362 361.607330,408.350464 356.539642,406.882446   C348.775543,404.633362 340.864288,402.892303 332.848938,400.821533   C332.390778,400.682953 332.167969,400.546295 331.916504,399.892090   C326.871429,397.083496 321.928284,397.030884 316.628113,399.638428   C315.510620,399.735840 314.755005,399.709961 313.931763,399.435242   C313.243286,399.396790 312.622498,399.607208 311.598450,399.940186   C309.523315,400.217651 307.851471,400.372559 306.097443,400.161499   C303.033752,397.373932 301.274963,394.668854 303.960602,390.933350   C303.960602,390.933350 303.988953,390.999512 304.334473,390.980072   C309.168823,387.895264 313.774445,384.981873 318.078461,381.675873   C319.447662,380.624237 320.014679,378.528259 320.948730,376.910156   C320.948730,376.910156 320.972107,376.986389 321.296570,376.936829   C331.671356,371.870209 338.144409,363.107849 344.871826,354.622009   C345.131531,354.294403 344.995789,353.653229 345.044312,353.158173   C345.826019,352.180817 346.607697,351.203461 348.029602,350.061646   C350.123688,347.953888 351.577576,346.010559 353.031494,344.067261   C353.031494,344.067261 352.998657,344.012848 353.393311,344.001465   C358.848755,341.417816 361.910278,337.377838 362.785919,331.733185   C362.785919,331.733185 362.820007,331.823730 363.139648,331.825012   C365.252869,329.012024 367.046509,326.197784 368.840088,323.383514   C369.186432,322.713837 369.532745,322.044159 370.443176,321.132385   C371.597076,319.833221 372.186920,318.776123 372.776764,317.719025   C372.776764,317.719025 372.804077,317.811493 373.119690,317.802032   C374.530212,315.752319 375.625183,313.712097 376.720154,311.671875   C376.720154,311.671875 376.747955,311.778656 377.078857,311.786469   C378.359344,311.210327 379.713165,310.853516 380.190369,310.004211   C382.587128,305.738312 384.881104,301.402496 386.946289,296.967896   C387.891235,294.938751 388.227264,292.626007 388.839447,290.441895   C389.109589,289.760773 389.379730,289.079620 390.186310,288.122009   C393.276917,285.459717 395.635162,282.998444 394.114166,279.042664   C394.540527,277.811218 394.966888,276.579803 396.027649,275.222137   C397.763641,277.512299 399.611481,279.865051 399.824127,282.357269   C400.415161,289.284302 404.878601,293.900055 408.635590,299.000336   C408.750732,299.138000 408.865845,299.275635 409.008240,300.078033   C412.141479,308.349426 414.972137,316.087372 418.502289,323.491791   C419.743011,326.094147 422.699219,327.878571 424.872101,330.036499   C434.359314,342.212372 442.973450,355.224701 453.596222,366.312653   C462.935028,376.060394 474.503723,383.677338 485.143097,392.165833   C486.340973,393.121552 487.899109,393.625793 489.922424,393.736572   C472.297729,374.136444 459.790131,351.691254 449.689636,327.897308   C461.755829,342.707245 473.190155,358.092896 486.036774,372.191681   C505.150757,393.168732 525.963013,412.361420 551.550293,425.561981   C552.712646,426.161652 553.884033,427.924622 553.985168,429.228485   C556.654602,463.645569 557.318481,498.107025 555.843384,533.027588   C550.149963,534.523926 544.549316,535.596497 537.948486,536.860657   C537.984985,536.763489 537.425903,537.942078 537.094116,539.181458   C528.122986,572.686768 509.148041,599.194763 481.013763,619.259583   C471.027435,626.381653 460.920258,633.334229 450.321228,640.727051   C439.919586,646.086975 430.415436,652.018250 420.133270,655.875427   C401.993530,662.680298 383.762360,661.479980 366.268280,652.806885   C358.571472,648.991028 351.005280,644.911804 343.379791,640.952209  M436.832184,574.176880   C424.979279,569.808044 413.041626,566.170959 400.181610,569.392456   C398.610321,569.786072 396.772369,570.211243 395.310333,569.775391   C380.596619,565.388550 367.021606,571.794922 352.348358,574.009338   C351.499023,574.131897 350.649689,574.254456 348.752930,574.528137   C350.838715,575.704590 351.944733,576.328430 353.121979,577.641113   C357.534485,581.831604 361.634888,586.427917 366.432129,590.118286   C373.772369,595.764954 382.608307,597.207825 391.676208,598.313843   C405.170349,599.959656 417.589417,597.200867 428.675110,589.891907   C433.510681,586.703674 439.622925,583.876038 441.494293,576.569214   C442.423096,575.984924 443.351898,575.400696 444.280701,574.816406   C444.129059,574.487549 443.977417,574.158752 443.825775,573.829895   C441.566376,574.173950 439.306976,574.518066 436.832184,574.176880  M450.303284,442.074524   C449.828491,442.621918 449.353699,443.169312 448.244690,443.965240   C446.619324,445.900726 444.993988,447.836243 442.878479,450.175537   C440.341492,455.361694 437.804504,460.547882 435.358215,466.290405   C436.156219,468.289459 436.443451,470.793854 437.837616,472.203125   C445.205200,479.650391 454.717072,483.428040 464.398102,486.739105   C465.401184,487.082214 466.815399,486.223236 468.935577,485.768951   C471.967743,485.856750 474.999939,485.944550 478.646210,486.515381   C485.085571,488.672607 490.405365,484.764923 495.701324,482.621002   C503.613129,479.418091 511.201080,475.029602 514.766663,465.980377   C518.157593,462.774902 521.548523,459.569427 524.733643,456.558502   C520.193481,452.369812 516.540710,448.484924 512.361084,445.288940   C508.200378,442.107391 503.510773,439.617554 498.562805,436.355438   C483.010376,430.095123 467.945618,430.087677 453.277222,439.868286   C453.023560,439.967316 452.879517,440.151886 452.223969,440.623718   C451.759338,441.052551 451.294739,441.481384 450.303284,442.074524  M356.346588,459.480133   C356.035461,458.542664 355.825775,457.556000 355.398376,456.674927   C346.022064,437.345917 325.546204,428.242706 303.744110,433.600983   C293.741119,436.059387 285.463135,441.264832 278.499939,448.771515   C276.076538,451.384094 273.402039,453.763824 270.085297,456.984985   C273.199310,459.864441 276.641876,463.047668 280.211395,466.893524   C280.912140,468.191620 281.419800,469.650238 282.344299,470.762329   C289.422363,479.276520 299.365570,483.095062 309.337067,486.675140   C310.994263,487.270081 313.321594,485.998505 316.225830,485.571594   C319.816467,485.710907 323.407104,485.850189 327.518311,486.453857   C339.278748,485.192932 349.167358,479.900818 357.501709,471.813690   C361.336609,468.092590 358.669952,463.971863 356.346588,459.480133  M470.064056,399.706787   C466.090515,400.118378 462.010559,400.095367 458.166748,401.036743   C451.246735,402.731476 444.372528,404.735138 437.661865,407.123138   C432.576599,408.932770 435.341187,412.829742 436.188751,415.973846   C437.035004,419.113037 438.707275,419.766174 442.096069,418.697998   C465.927582,411.186218 489.848816,408.016724 513.787781,418.464813   C514.483276,418.768311 515.885498,418.623718 516.271057,418.140198   C516.665100,417.645935 516.543945,416.177002 516.072388,415.652740   C513.881348,413.217102 511.794464,410.505768 509.118530,408.719818   C497.574829,401.015320 484.589355,398.874695 470.064056,399.706787  M392.678467,533.013733   C388.342743,532.425720 384.007050,531.837708 379.485413,531.224487   C381.228699,537.551697 389.404419,542.228027 397.575317,541.987793   C404.896240,541.772583 413.268982,536.549500 414.228943,531.735168   C407.387085,532.161133 400.509399,532.589355 392.678467,533.013733  z"/>
<path fill="#EDDBC3" opacity="1.000000" stroke="none" d=" M290.004120,415.253296   C288.554626,416.897034 287.179596,418.614807 285.637573,420.166626   C283.518005,422.299652 281.272034,424.307037 279.825958,425.666962   C276.783966,425.349915 274.277313,425.153320 271.793976,424.795013   C270.914429,424.668121 269.541229,424.350586 269.328339,423.774567   C267.204407,418.027802 263.376099,417.797119 258.529572,420.062927   C256.902527,420.823608 255.124649,421.261627 253.014679,421.852173   C260.792023,417.495178 268.970367,413.133148 277.540649,409.102783   C278.390869,410.657776 278.849182,411.881042 279.157959,413.414001   C276.297516,416.166534 273.586609,418.609436 270.875671,421.052307   C271.149048,421.340302 271.422394,421.628265 271.695740,421.916229   C277.798553,419.695251 283.901337,417.474274 290.004120,415.253296  z"/>
<path fill="#EDDBC3" opacity="1.000000" stroke="none" d=" M239.160629,451.431519   C239.748444,451.727173 240.686279,452.454163 240.681229,453.174561   C240.510254,477.585510 240.264557,501.995972 239.987686,526.406006   C239.940887,530.531006 241.613602,532.998474 245.903564,533.489868   C248.490677,533.786255 251.050507,534.320679 253.809174,535.048828   C249.252960,534.823975 244.510193,534.298340 239.373932,533.699219   C238.705170,526.489685 238.152634,519.351562 238.207382,512.218140   C238.361786,492.097626 238.765549,471.979095 239.160629,451.431519  z"/>
<path fill="#EDDBC3" opacity="1.000000" stroke="none" d=" M303.627258,391.026917   C301.274963,394.668854 303.033752,397.373932 305.787628,400.268066   C304.778534,401.054382 303.997131,401.368134 303.239563,401.624451   C303.263397,401.566986 303.146271,401.525085 302.720947,401.550537   C298.601501,402.952301 294.907410,404.328613 290.932434,405.656891   C290.100372,405.727692 289.549255,405.846466 288.915375,405.633057   C287.620819,404.883209 286.409027,404.465515 285.197205,404.047821   C291.229431,399.738708 297.261658,395.429626 303.627258,391.026917  z"/>
<path fill="#EDDBC3" opacity="1.000000" stroke="none" d=" M249.608109,422.944702   C249.550278,423.580353 249.256577,424.557373 248.652008,424.820648   C244.843613,426.479187 242.625504,428.408661 243.681488,433.402618   C244.238708,436.037933 241.985291,439.219604 241.190018,442.204956   C240.615189,444.362701 240.351776,446.603424 239.670227,448.901428   C239.671082,442.368042 239.797989,435.727325 240.359253,429.123535   C240.472855,427.786865 242.000000,426.231689 243.281815,425.414948   C245.063080,424.279938 247.227890,423.746857 249.608109,422.944702  z"/>
<path fill="#EDDBC3" opacity="1.000000" stroke="none" d=" M344.748657,353.298523   C344.995789,353.653229 345.131531,354.294403 344.871826,354.622009   C338.144409,363.107849 331.671356,371.870209 321.262207,376.916595   C328.753265,369.110229 336.603119,361.274567 344.748657,353.298523  z"/>
<path fill="#EDDBC3" opacity="1.000000" stroke="none" d=" M424.803802,329.693359   C422.699219,327.878571 419.743011,326.094147 418.502289,323.491791   C414.972137,316.087372 412.141479,308.349426 409.027100,300.346558   C414.257629,309.750305 419.496552,319.550262 424.803802,329.693359  z"/>
<path fill="#EDDBC3" opacity="1.000000" stroke="none" d=" M408.613464,298.642303   C404.878601,293.900055 400.415161,289.284302 399.824127,282.357269   C399.611481,279.865051 397.763641,277.512299 396.289917,275.024780   C396.344482,273.674316 396.771210,272.394989 397.442261,270.383240   C401.404694,280.299377 404.998016,289.291809 408.613464,298.642303  z"/>
<path fill="#EDDBC3" opacity="1.000000" stroke="none" d=" M388.559998,290.661682   C388.227264,292.626007 387.891235,294.938751 386.946289,296.967896   C384.881104,301.402496 382.587128,305.738312 380.190369,310.004211   C379.713165,310.853516 378.359344,311.210327 377.028992,311.762817   C380.525696,304.781342 384.403107,297.831390 388.559998,290.661682  z"/>
<path fill="#F6DAB7" opacity="1.000000" stroke="none" d=" M284.855560,404.117615   C286.409027,404.465515 287.620819,404.883209 288.716095,405.910400   C285.502197,408.714722 282.404846,410.909515 279.307495,413.104309   C278.849182,411.881042 278.390869,410.657776 277.900208,409.018799   C280.083252,407.131226 282.298584,405.659302 284.855560,404.117615  z"/>
<path fill="#EDDBC3" opacity="1.000000" stroke="none" d=" M320.624451,377.011139   C320.014679,378.528259 319.447662,380.624237 318.078461,381.675873   C313.774445,384.981873 309.168823,387.895264 304.305725,390.958374   C309.387695,386.341431 314.843933,381.726776 320.624451,377.011139  z"/>
<path fill="#EDDBC3" opacity="1.000000" stroke="none" d=" M362.496155,331.896973   C361.910278,337.377838 358.848755,341.417816 353.424316,344.008453   C356.109222,340.038147 359.157806,336.049469 362.496155,331.896973  z"/>
<path fill="#EDDBC3" opacity="1.000000" stroke="none" d=" M393.867188,279.279968   C395.635162,282.998444 393.276917,285.459717 390.389618,287.920471   C391.244354,285.169373 392.432281,282.343323 393.867188,279.279968  z"/>
<path fill="#EDDBC3" opacity="1.000000" stroke="none" d=" M368.554626,323.593567   C367.046509,326.197784 365.252869,329.012024 363.092041,331.816284   C364.572968,329.138733 366.421051,326.471161 368.554626,323.593567  z"/>
<path fill="#EDDBC3" opacity="1.000000" stroke="none" d=" M352.743256,344.220825   C351.577576,346.010559 350.123688,347.953888 348.321838,349.942566   C349.467560,348.116760 350.961304,346.245575 352.743256,344.220825  z"/>
<path fill="#EDDBC3" opacity="1.000000" stroke="none" d=" M376.432861,311.837952   C375.625183,313.712097 374.530212,315.752319 373.071899,317.795410   C373.854218,315.866821 374.999908,313.935425 376.432861,311.837952  z"/>
<path fill="#EDDBC3" opacity="1.000000" stroke="none" d=" M372.504517,317.853821   C372.186920,318.776123 371.597076,319.833221 370.693451,320.988342   C370.997192,320.053802 371.614716,319.021210 372.504517,317.853821  z"/>
<path fill="#EDDBC3" opacity="1.000000" stroke="none" d=" M251.639557,422.050598   C251.629944,422.291565 251.289810,422.523315 250.638397,422.809021   C250.654434,422.589142 250.981735,422.315308 251.639557,422.050598  z"/>
<path fill="#E0C5A4" opacity="1.000000" stroke="none" d=" M343.434052,641.421753   C351.005280,644.911804 358.571472,648.991028 366.268280,652.806885   C383.762360,661.479980 401.993530,662.680298 420.133270,655.875427   C430.415436,652.018250 439.919586,646.086975 450.086609,641.009521   C450.618835,647.328064 450.838593,653.726929 450.921997,660.579224   C441.061371,665.924194 431.525055,671.244690 421.569550,675.608826   C405.976868,682.443970 389.451538,684.022339 372.903503,680.548218   C362.983398,678.465637 353.490875,674.346252 343.459198,671.077026   C343.237579,661.304932 343.362946,651.598145 343.434052,641.421753  z"/>
<path fill="#E0C5A4" opacity="1.000000" stroke="none" d=" M451.733459,688.597534   C451.065491,687.962280 450.103943,686.877930 450.100739,685.790710   C450.084930,680.398682 450.321960,675.005859 450.749634,669.304810   C451.313538,675.379883 451.597656,681.763489 451.733459,688.597534  z"/>
<path fill="#292C32" opacity="1.000000" stroke="none" d=" M280.084412,466.230896   C276.641876,463.047668 273.199310,459.864441 270.085297,456.984985   C273.402039,453.763824 276.076538,451.384094 278.499939,448.771515   C285.463135,441.264832 293.741119,436.059387 303.744110,433.600983   C325.546204,428.242706 346.022064,437.345917 355.398376,456.674927   C355.825775,457.556000 356.035461,458.542664 356.284607,460.105621   C355.549988,460.289795 354.752319,459.963196 354.225159,459.388489   C350.872986,455.734344 347.765961,451.831177 344.189819,448.416779   C342.410034,446.717499 339.806427,445.881012 337.713409,444.730072   C339.994171,450.195923 343.132233,454.926727 343.850647,460.000153   C345.510376,471.721130 340.073151,479.349640 326.997742,485.989502   C323.407104,485.850189 319.816467,485.710907 315.465424,485.384430   C303.324310,482.910858 295.507965,468.221039 299.064453,456.246246   C301.146667,449.235260 305.717926,444.395630 312.592957,440.512909   C299.309265,439.392059 284.670654,451.782471 280.084412,466.230896  z"/>
<path fill="#282B32" opacity="1.000000" stroke="none" d=" M478.032104,486.032349   C474.999939,485.944550 471.967743,485.856750 468.199341,485.636017   C464.719482,484.447266 461.406616,484.039520 459.334442,482.219330   C451.850677,475.645660 446.912415,462.449860 453.702148,451.897583   C456.319733,452.872131 458.565796,453.700378 461.813080,454.897827   C461.346283,452.585175 460.956726,451.107208 460.779022,449.604187   C460.672943,448.707184 460.546478,447.475281 461.030426,446.897827   C466.076569,440.876892 475.036591,439.852173 482.889160,444.399933   C482.355957,445.695343 481.813416,447.013428 481.233734,448.421722   C484.770355,451.854340 487.682159,451.538879 490.533447,447.705200   C492.279419,450.458954 494.176361,452.889008 495.064972,455.644257   C499.349304,468.928192 492.989655,480.091217 478.032104,486.032349  z"/>
<path fill="#F0B29B" opacity="1.000000" stroke="none" d=" M441.056854,577.038940   C439.622925,583.876038 433.510681,586.703674 428.675110,589.891907   C417.589417,597.200867 405.170349,599.959656 391.676208,598.313843   C382.608307,597.207825 373.772369,595.764954 366.432129,590.118286   C361.634888,586.427917 357.534485,581.831604 353.492584,577.306274   C361.631927,578.495789 369.366760,580.228516 377.176880,581.498230   C390.660522,583.690369 404.176605,583.771545 417.660614,581.281677   C425.454742,579.842407 433.257812,578.451538 441.056854,577.038940  z"/>
<path fill="#2D2F33" opacity="1.000000" stroke="none" d=" M470.517578,399.653381   C484.589355,398.874695 497.574829,401.015320 509.118530,408.719818   C511.794464,410.505768 513.881348,413.217102 516.072388,415.652740   C516.543945,416.177002 516.665100,417.645935 516.271057,418.140198   C515.885498,418.623718 514.483276,418.768311 513.787781,418.464813   C489.848816,408.016724 465.927582,411.186218 442.096069,418.697998   C438.707275,419.766174 437.035004,419.113037 436.188751,415.973846   C435.341187,412.829742 432.576599,408.932770 437.661865,407.123138   C444.372528,404.735138 451.246735,402.731476 458.166748,401.036743   C462.010559,400.095367 466.090515,400.118378 470.517578,399.653381  z"/>
<path fill="#2C2D32" opacity="1.000000" stroke="none" d=" M279.157959,413.413971   C282.404846,410.909515 285.502197,408.714722 288.798828,406.242554   C289.549255,405.846466 290.100372,405.727692 291.370667,405.730194   C295.775330,404.409363 299.460785,402.967224 303.146271,401.525085   C303.146271,401.525085 303.263397,401.566986 303.764404,401.717224   C311.651611,401.913300 319.038788,402.042328 326.423370,401.953979   C328.624481,401.927643 330.818329,401.292023 333.015503,400.935577   C340.864288,402.892303 348.775543,404.633362 356.539642,406.882446   C361.607330,408.350464 359.100494,412.133362 358.210144,415.097473   C357.265533,418.242249 355.699127,420.637299 351.787506,418.421234   C350.951233,417.947449 349.875336,417.896667 348.254608,417.394775   C340.731018,415.821808 333.862671,414.505035 326.994293,413.188232   C326.561401,413.069916 326.128510,412.951599 324.994263,412.717865   C314.852539,413.051208 305.412170,413.499939 295.971771,413.948669   C295.519409,413.947937 295.067078,413.947174 294.031708,414.067749   C292.942871,414.409058 292.437042,414.629120 291.931213,414.849152   C291.490967,414.887970 291.050720,414.926788 290.307312,415.109467   C283.901337,417.474274 277.798553,419.695251 271.695740,421.916229   C271.422394,421.628265 271.149048,421.340302 270.875671,421.052307   C273.586609,418.609436 276.297516,416.166534 279.157959,413.413971  z"/>
<path fill="#2B2E31" opacity="1.000000" stroke="none" d=" M490.219727,447.531372   C487.682159,451.538879 484.770355,451.854340 481.233734,448.421722   C481.813416,447.013428 482.355957,445.695343 482.889160,444.399933   C475.036591,439.852173 466.076569,440.876892 461.030426,446.897827   C460.546478,447.475281 460.672943,448.707184 460.779022,449.604187   C460.956726,451.107208 461.346283,452.585175 461.813080,454.897827   C458.565796,453.700378 456.319733,452.872131 453.759094,451.536621   C455.150787,448.795349 456.857056,446.561340 458.563354,444.327332   C458.241913,443.939392 457.920471,443.551453 457.599060,443.163513   C454.540771,445.445404 451.091736,447.357910 448.509460,450.089722   C443.823303,455.047241 439.653076,460.492401 435.267517,465.734070   C437.804504,460.547882 440.341492,455.361694 443.499847,449.985901   C445.707092,447.769745 447.292999,445.743225 448.878876,443.716675   C449.353699,443.169312 449.828491,442.621918 450.908386,441.952759   C451.957367,441.361298 452.401215,440.891663 452.845093,440.421997   C452.879517,440.151886 453.023560,439.967316 453.853821,439.890533   C458.951355,438.272705 463.472260,436.632629 468.241516,435.261353   C468.890289,436.902008 469.290771,438.273804 469.812897,440.062286   C473.460999,438.960602 476.980530,438.349091 478.471802,434.057800   C484.572662,433.701721 490.060883,434.000000 495.167389,436.957275   C496.118103,437.507874 497.740601,436.898468 499.053040,436.824432   C503.510773,439.617554 508.200378,442.107391 512.361084,445.288940   C516.540710,448.484924 520.193481,452.369812 524.733643,456.558502   C521.548523,459.569427 518.157593,462.774902 514.330444,465.590759   C508.909851,450.912476 494.352570,438.398102 481.202881,440.235413   C484.077148,442.561096 487.148438,445.046234 490.219727,447.531372  z"/>
<path fill="#F1B49D" opacity="1.000000" stroke="none" d=" M353.014618,574.037476   C367.021606,571.794922 380.596619,565.388550 395.310333,569.775391   C396.772369,570.211243 398.610321,569.786072 400.181610,569.392456   C413.041626,566.170959 424.979279,569.808044 436.651581,574.805420   C430.275665,576.321838 424.103912,577.692200 417.880066,577.996643   C405.156158,578.619019 392.370697,579.348938 379.675323,578.722473   C370.733124,578.281189 361.897705,575.676331 353.014618,574.037476  z"/>
<path fill="#F5F4F3" opacity="1.000000" stroke="none" d=" M490.533447,447.705200   C487.148438,445.046234 484.077148,442.561096 481.202881,440.235413   C494.352570,438.398102 508.909851,450.912476 513.974243,465.547852   C511.201080,475.029602 503.613129,479.418091 495.701324,482.621002   C490.405365,484.764923 485.085571,488.672607 478.339172,486.273865   C492.989655,480.091217 499.349304,468.928192 495.064972,455.644257   C494.176361,452.889008 492.279419,450.458954 490.533447,447.705200  z"/>
<path fill="#F6F5F3" opacity="1.000000" stroke="none" d=" M280.147888,466.562195   C284.670654,451.782471 299.309265,439.392059 312.592957,440.512909   C305.717926,444.395630 301.146667,449.235260 299.064453,456.246246   C295.507965,468.221039 303.324310,482.910858 315.022156,485.393341   C313.321594,485.998505 310.994263,487.270081 309.337067,486.675140   C299.365570,483.095062 289.422363,479.276520 282.344299,470.762329   C281.419800,469.650238 280.912140,468.191620 280.147888,466.562195  z"/>
<path fill="#F4F4F2" opacity="1.000000" stroke="none" d=" M327.258026,486.221680   C340.073151,479.349640 345.510376,471.721130 343.850647,460.000153   C343.132233,454.926727 339.994171,450.195923 337.713409,444.730072   C339.806427,445.881012 342.410034,446.717499 344.189819,448.416779   C347.765961,451.831177 350.872986,455.734344 354.225159,459.388489   C354.752319,459.963196 355.549988,460.289795 356.482788,460.460205   C358.669952,463.971863 361.336609,468.092590 357.501709,471.813690   C349.167358,479.900818 339.278748,485.192932 327.258026,486.221680  z"/>
<path fill="#F3F3F2" opacity="1.000000" stroke="none" d=" M435.312866,466.012207   C439.653076,460.492401 443.823303,455.047241 448.509460,450.089722   C451.091736,447.357910 454.540771,445.445404 457.599060,443.163513   C457.920471,443.551453 458.241913,443.939392 458.563354,444.327332   C456.857056,446.561340 455.150787,448.795349 453.387573,451.390320   C446.912415,462.449860 451.850677,475.645660 459.334442,482.219330   C461.406616,484.039520 464.719482,484.447266 467.750977,485.712524   C466.815399,486.223236 465.401184,487.082214 464.398102,486.739105   C454.717072,483.428040 445.205200,479.650391 437.837616,472.203125   C436.443451,470.793854 436.156219,468.289459 435.312866,466.012207  z"/>
<path fill="#D19E87" opacity="1.000000" stroke="none" d=" M352.681488,574.023438   C361.897705,575.676331 370.733124,578.281189 379.675323,578.722473   C392.370697,579.348938 405.156158,578.619019 417.880066,577.996643   C424.103912,577.692200 430.275665,576.321838 436.759277,575.148010   C439.306976,574.518066 441.566376,574.173950 443.825775,573.829895   C443.977417,574.158752 444.129059,574.487549 444.280701,574.816406   C443.351898,575.400696 442.423096,575.984924 441.275574,576.804077   C433.257812,578.451538 425.454742,579.842407 417.660614,581.281677   C404.176605,583.771545 390.660522,583.690369 377.176880,581.498230   C369.366760,580.228516 361.631927,578.495789 353.456970,576.961914   C351.944733,576.328430 350.838715,575.704590 348.752930,574.528137   C350.649689,574.254456 351.499023,574.131897 352.681488,574.023438  z"/>
<path fill="#E2C5A4" opacity="1.000000" stroke="none" d=" M393.155090,533.015625   C400.509399,532.589355 407.387085,532.161133 414.228943,531.735168   C413.268982,536.549500 404.896240,541.772583 397.575317,541.987793   C389.404419,542.228027 381.228699,537.551697 379.485413,531.224487   C384.007050,531.837708 388.342743,532.425720 393.155090,533.015625  z"/>
<path fill="#322F2A" opacity="1.000000" stroke="none" d=" M467.993195,434.992554   C463.472260,436.632629 458.951355,438.272705 454.036926,439.885681   C467.945618,430.087677 483.010376,430.095123 498.807922,436.589935   C497.740601,436.898468 496.118103,437.507874 495.167389,436.957275   C490.060883,434.000000 484.572662,433.701721 478.025208,434.026184   C474.079224,434.344086 471.036224,434.668304 467.993195,434.992554  z"/>
<path fill="#EDDBC3" opacity="1.000000" stroke="none" d=" M296.247009,414.207947   C305.412170,413.499939 314.852539,413.051208 324.661560,412.789551   C322.198761,413.972992 319.369324,415.793762 316.535553,415.800537   C309.865540,415.816498 303.193451,414.966736 296.247009,414.207947  z"/>
<path fill="#2C2B28" opacity="1.000000" stroke="none" d=" M332.848938,400.821533   C330.818329,401.292023 328.624481,401.927643 326.423370,401.953979   C319.038788,402.042328 311.651611,401.913300 303.740540,401.774689   C303.997131,401.368134 304.778534,401.054382 305.869781,400.634033   C307.851471,400.372559 309.523315,400.217651 311.932587,400.015686   C313.113129,399.873749 313.556274,399.778900 313.999420,399.684082   C314.755005,399.709961 315.510620,399.735840 317.086578,399.734558   C322.609283,399.904083 327.311615,400.100769 332.013947,400.297455   C332.167969,400.546295 332.390778,400.682953 332.848938,400.821533  z"/>
<path fill="#EDDBC3" opacity="1.000000" stroke="none" d=" M327.116852,413.533356   C333.862671,414.505035 340.731018,415.821808 347.884155,417.355774   C347.808472,417.893341 347.373169,418.546967 347.098572,418.485291   C340.468475,416.996002 333.855469,415.430359 327.116852,413.533356  z"/>
<path fill="#EDDBC3" opacity="1.000000" stroke="none" d=" M331.916504,399.892090   C327.311615,400.100769 322.609283,399.904083 317.448486,399.611267   C321.928284,397.030884 326.871429,397.083496 331.916504,399.892090  z"/>
<path fill="#322F2A" opacity="1.000000" stroke="none" d=" M448.561768,443.840942   C447.292999,445.743225 445.707092,447.769745 443.744934,449.783997   C444.993988,447.836243 446.619324,445.900726 448.561768,443.840942  z"/>
<path fill="#EDDBC3" opacity="1.000000" stroke="none" d=" M313.931763,399.435211   C313.556274,399.778900 313.113129,399.873749 312.335846,399.893127   C312.622498,399.607208 313.243286,399.396790 313.931763,399.435211  z"/>
<path fill="#EDDBC3" opacity="1.000000" stroke="none" d=" M292.089752,415.061218   C292.437042,414.629120 292.942871,414.409058 293.730652,414.234528   C293.424500,414.611084 292.836395,414.942169 292.089752,415.061218  z"/>
<path fill="#322F2A" opacity="1.000000" stroke="none" d=" M452.534546,440.522858   C452.401215,440.891663 451.957367,441.361298 451.171814,441.870605   C451.294739,441.481384 451.759338,441.052551 452.534546,440.522858  z"/>
<path fill="#2C2B28" opacity="1.000000" stroke="none" d=" M302.720947,401.550537   C299.460785,402.967224 295.775330,404.409363 291.651581,405.778198   C294.907410,404.328613 298.601501,402.952301 302.720947,401.550537  z"/>
<path fill="#282B32" opacity="1.000000" stroke="none" d=" M468.241516,435.261383   C471.036224,434.668304 474.079224,434.344086 477.568848,434.051453   C476.980530,438.349091 473.460999,438.960602 469.812897,440.062286   C469.290771,438.273804 468.890289,436.902008 468.241516,435.261383  z"/>
</svg>